<svg xmlns="http://www.w3.org/2000/svg" viewBox="0 0 666 353"><title>Nwote</title><g id="N"><polygon points="409.55 94.34 399.61 121.07 382.49 75 293 315.76 203.51 75 106.88 335 71 335 195.51 0 285 240.76 374.49 0 409.55 94.34" style="fill:#41b883"/><polygon points="399.61 121.07 320.1 335 249.78 335 195.51 189 141.25 335 106.88 335 203.51 75 293 315.76 382.49 75 399.61 121.07" style="fill:#3b8070"/><circle cx="26" cy="327" r="26" style="fill:#35495e"/></g><g id="w"><polygon points="666 138 589.89 334.85 536 195.48 482.11 334.85 406 138 447.38 138 482.11 227.85 515.32 141.98 516.85 138 555.15 138 556.68 141.98 589.89 227.85 624.62 138 666 138" style="fill:#41b883"/><polygon points="643.96 138 589.89 277.85 536 138.48 482.11 277.85 428.04 138 447.38 138 482.11 227.85 515.32 141.98 516.85 138 555.15 138 556.68 141.98 589.89 227.85 624.62 138 643.96 138" style="fill:#3b8070"/></g></svg>